<svg width="800" height="600" xmlns="http://www.w3.org/2000/svg">

 <g>
  <title>Layer 1</title>
  <path id="svg_1" d="m193,131.5c-42,91 -182,151 -43,92" opacity="NaN" stroke="#000" fill="#fff"/>
  <path id="svg_2" d="m191,130.5" opacity="NaN" stroke="#000" fill="#fff"/>
  <path id="svg_3" d="m193,128.5c-133,75 -149,86 -149,85.5" opacity="NaN" stroke="#000" fill="#fff"/>
  <path id="svg_4" d="m125,167.5c26,22 26,18 26,17.5" opacity="NaN" stroke="#000" fill="#fff"/>
  <path id="svg_5" d="m233,168.5c56,-2 58,-43 57,-42c-1,1 -8,88 -5,97" opacity="NaN" stroke="#000" fill="#fff"/>
  <path id="svg_6" d="m286,221.5c50,41 92,18 92,17.5c0,0.5 9,-120.5 9,-121c0,0.5 8,93.5 -1,103.5" opacity="NaN" stroke="#000" fill="#fff"/>
 </g>
</svg>